<?xml version="1.0" standalone="no"?>
<!DOCTYPE svg PUBLIC "-//W3C//DTD SVG 20010904//EN"
 "http://www.w3.org/TR/2001/REC-SVG-20010904/DTD/svg10.dtd">
<svg version="1.0" xmlns="http://www.w3.org/2000/svg"
 width="1536.000000pt" height="1024.000000pt" viewBox="0 0 1536.000000 1024.000000"
 preserveAspectRatio="xMidYMid meet">

<g transform="translate(0.000000,1024.000000) scale(0.100000,-0.100000)"
fill="#000000" stroke="none">
<path d="M8706 7383 c-6 -14 -5 -15 5 -6 7 7 10 15 7 18 -3 3 -9 -2 -12 -12z"/>
<path d="M9286 7385 c-9 -26 -7 -32 5 -12 6 10 9 21 6 23 -2 3 -7 -2 -11 -11z"/>
<path d="M9240 7290 c-6 -11 -8 -20 -6 -20 3 0 10 9 16 20 6 11 8 20 6 20 -3
0 -10 -9 -16 -20z"/>
<path d="M8640 7270 c-6 -11 -8 -20 -6 -20 3 0 10 9 16 20 6 11 8 20 6 20 -3
0 -10 -9 -16 -20z"/>
<path d="M8608 7218 c-22 -34 -42 -74 -31 -63 14 15 55 85 50 85 -3 0 -11 -10
-19 -22z"/>
<path d="M9140 7110 c-6 -11 -8 -20 -6 -20 3 0 10 9 16 20 6 11 8 20 6 20 -3
0 -10 -9 -16 -20z"/>
<path d="M8540 7100 c-6 -11 -8 -20 -6 -20 3 0 10 9 16 20 6 11 8 20 6 20 -3
0 -10 -9 -16 -20z"/>
<path d="M8479 6998 c-23 -40 -44 -76 -46 -80 -2 -5 -2 -8 0 -8 3 0 17 21 32
48 15 26 36 62 47 80 11 17 17 32 14 32 -3 0 -24 -33 -47 -72z"/>
<path d="M9047 6938 c-60 -112 -71 -135 -60 -123 14 14 116 205 109 205 -2 0
-24 -37 -49 -82z"/>
<path d="M9255 6980 c-12 -4 -27 -15 -34 -23 -10 -12 -3 -11 28 4 38 18 43 18
72 4 42 -22 64 -75 49 -120 -14 -43 -41 -66 -88 -75 l-37 -8 36 -1 c45 -1 84
27 99 74 16 50 4 90 -38 125 -38 31 -53 35 -87 20z"/>
<path d="M9230 6908 c-40 -43 -17 -101 40 -101 35 0 70 31 70 62 0 56 -71 81
-110 39z m85 -12 c19 -28 9 -58 -26 -76 -25 -14 -69 11 -69 38 0 56 66 82 95
38z"/>
<path d="M6940 6911 c0 -6 4 -13 10 -16 6 -3 7 1 4 9 -7 18 -14 21 -14 7z"/>
<path d="M8410 6880 c-6 -11 -8 -20 -6 -20 3 0 10 9 16 20 6 11 8 20 6 20 -3
0 -10 -9 -16 -20z"/>
<path d="M6340 6860 c6 -11 13 -20 16 -20 2 0 0 9 -6 20 -6 11 -13 20 -16 20
-2 0 0 -9 6 -20z"/>
<path d="M8380 6830 c-6 -11 -8 -20 -6 -20 3 0 10 9 16 20 6 11 8 20 6 20 -3
0 -10 -9 -16 -20z"/>
<path d="M8357 6793 c-2 -5 -17 -30 -32 -58 -16 -27 -24 -45 -18 -40 14 14 66
105 60 105 -3 0 -8 -3 -10 -7z"/>
<path d="M8845 6563 c-70 -131 -139 -259 -153 -285 -13 -26 -29 -45 -35 -41
-6 3 -7 1 -3 -5 4 -6 -5 -34 -19 -62 -14 -27 -23 -50 -21 -50 2 0 60 105 129
233 207 385 239 447 234 447 -3 0 -63 -107 -132 -237z"/>
<path d="M6390 6770 c6 -11 13 -20 16 -20 2 0 0 9 -6 20 -6 11 -13 20 -16 20
-2 0 0 -9 6 -20z"/>
<path d="M7027 6755 c9 -19 18 -33 21 -31 4 5 -26 66 -33 66 -3 0 3 -16 12
-35z"/>
<path d="M9094 6719 c-14 -28 -24 -53 -22 -55 2 -2 16 21 31 51 15 30 25 55
22 55 -3 0 -16 -23 -31 -51z"/>
<path d="M9168 6703 c-15 -32 -81 -161 -146 -288 -65 -126 -152 -294 -192
-372 -40 -78 -78 -141 -84 -140 -6 1 -17 9 -24 17 -11 13 -11 11 -2 -8 6 -12
16 -20 22 -16 6 4 9 3 6 -2 -59 -128 -79 -164 -88 -159 -15 9 -12 18 3 9 9 -5
9 -4 0 6 -17 18 -27 6 -15 -16 8 -14 3 -33 -20 -79 -17 -33 -34 -62 -39 -63
-5 -2 -7 -8 -4 -12 3 -5 -3 -18 -15 -30 -11 -11 -20 -24 -20 -30 0 -20 -23
-58 -34 -56 -6 2 -8 1 -3 -1 13 -8 8 -23 -8 -23 -14 0 -21 21 -15 45 2 9 6 31
9 57 1 3 9 4 20 1 11 -3 21 2 24 11 4 9 13 16 21 16 10 0 13 6 10 15 -4 8 -12
15 -20 15 -8 0 -11 -6 -7 -17 5 -12 3 -14 -7 -8 -8 5 -11 4 -6 -3 3 -6 1 -14
-5 -17 -22 -14 -20 5 7 57 15 29 29 47 31 41 6 -18 20 -16 20 2 0 8 -4 12 -9
9 -17 -11 -7 23 17 59 14 20 23 37 20 37 -3 0 2 11 11 25 9 14 14 28 11 31 -3
4 -27 -36 -53 -87 -25 -52 -102 -197 -169 -324 -67 -126 -159 -302 -205 -390
-45 -88 -106 -205 -135 -260 -64 -122 -167 -319 -209 -400 -17 -33 -42 -82
-54 -109 l-23 -48 48 27 c73 42 78 48 153 191 38 73 78 148 88 166 18 33 95
179 209 398 155 297 286 546 293 555 4 6 65 123 135 260 120 236 172 337 394
768 51 98 91 183 89 188 -2 5 -15 -17 -30 -48z m-686 -1210 c-5 -10 -7 -36 -3
-58 7 -36 1 -53 -62 -178 -38 -76 -71 -136 -74 -133 -3 2 0 14 7 25 8 15 8 21
0 21 -6 0 -8 5 -5 10 4 6 11 8 16 5 5 -4 9 -2 9 3 0 5 -9 12 -20 15 -13 3 -18
1 -14 -6 5 -9 4 -9 -5 -1 -9 8 -3 28 27 82 21 40 42 69 45 65 4 -3 1 -13 -6
-22 -11 -14 -10 -14 6 -2 11 9 16 22 13 34 -4 18 63 171 72 163 2 -3 -1 -13
-6 -23z m-165 -318 c-4 -8 0 -27 8 -42 14 -27 4 -60 -15 -48 -5 3 -6 -3 -3
-14 5 -20 -42 -121 -56 -121 -5 0 -11 -12 -14 -27 -8 -36 -133 -268 -139 -256
-3 4 -3 3 -2 -4 4 -15 -81 -188 -96 -198 -7 -4 -14 2 -17 14 -3 12 -10 21 -15
21 -5 0 -2 -12 7 -27 16 -27 15 -31 -13 -85 -16 -32 -32 -55 -36 -51 -4 4 -4
0 0 -10 3 -9 1 -17 -4 -17 -6 0 -13 -8 -16 -18 -4 -10 -25 -28 -47 -40 -23
-12 -38 -16 -35 -9 3 6 9 20 12 30 4 9 10 17 15 17 5 0 9 7 9 15 0 22 50 118
57 111 4 -3 13 0 21 7 13 9 14 9 8 0 -4 -7 -3 -13 3 -13 6 0 9 13 8 29 -2 28
-3 29 -21 13 -16 -14 -15 -10 5 25 13 23 28 39 33 36 5 -4 6 -1 2 6 -5 7 0 21
10 32 9 10 14 19 10 19 -4 0 11 33 32 73 22 39 74 137 115 217 114 223 171
330 175 330 2 0 2 -7 -1 -15z"/>
<path d="M8400 5275 c1 -26 2 -28 11 -12 8 14 8 22 0 30 -8 8 -11 3 -11 -18z"/>
<path d="M8240 4993 c0 -42 11 -38 16 7 2 16 -1 30 -6 30 -6 0 -10 -16 -10
-37z"/>
<path d="M8146 4842 c-10 -22 -12 -32 -5 -24 18 17 29 15 23 -5 -5 -17 -5 -17
6 0 6 9 8 22 5 27 -3 6 1 13 9 16 22 8 20 19 -2 21 -13 1 -25 -11 -36 -35z"/>
<path d="M8017 4597 c-2 -6 -5 -15 -6 -19 -1 -4 -6 -21 -11 -38 -6 -22 -5 -28
2 -24 8 5 9 1 5 -10 -4 -11 -3 -15 4 -11 6 4 8 13 5 21 -3 7 3 18 12 23 14 8
15 13 5 30 -9 15 -9 21 -1 23 9 3 9 6 1 11 -6 4 -13 1 -16 -6z"/>
<path d="M7917 4389 c-12 -13 -13 -19 -4 -19 8 0 7 -4 -3 -11 -13 -8 -12 -10
4 -7 10 2 25 13 33 24 12 18 12 22 0 27 -8 3 -21 -3 -30 -14z"/>
<path d="M6425 6710 c9 -16 18 -30 21 -30 2 0 -2 14 -11 30 -9 17 -18 30 -21
30 -2 0 2 -13 11 -30z"/>
<path d="M8224 6568 c-81 -136 -76 -128 -70 -128 2 0 35 51 72 113 80 133 76
127 71 127 -3 0 -35 -51 -73 -112z"/>
<path d="M8977 6488 c-118 -227 -168 -328 -162 -328 3 0 26 42 51 93 25 50 74
144 108 207 64 122 97 190 91 190 -2 0 -41 -73 -88 -162z"/>
<path d="M7120 6600 c6 -11 13 -20 16 -20 2 0 0 9 -6 20 -6 11 -13 20 -16 20
-2 0 0 -9 6 -20z"/>
<path d="M7155 6540 c9 -16 18 -30 21 -30 2 0 -2 14 -11 30 -9 17 -18 30 -21
30 -2 0 2 -13 11 -30z"/>
<path d="M6520 6540 c6 -11 13 -20 16 -20 2 0 0 9 -6 20 -6 11 -13 20 -16 20
-2 0 0 -9 6 -20z"/>
<path d="M7200 6465 c0 -5 10 -21 21 -35 13 -17 17 -18 10 -5 -17 33 -31 51
-31 40z"/>
<path d="M6170 6446 c0 -2 7 -7 16 -10 8 -3 12 -2 9 4 -6 10 -25 14 -25 6z"/>
<path d="M6430 6430 c6 -11 13 -20 16 -20 2 0 0 9 -6 20 -6 11 -13 20 -16 20
-2 0 0 -9 6 -20z"/>
<path d="M8012 6208 c-230 -395 -282 -487 -282 -497 0 -10 460 -361 473 -361
3 0 51 87 107 193 308 578 308 577 292 562 -5 -5 -46 -77 -89 -160 -152 -285
-176 -330 -191 -359 -11 -22 -17 -25 -24 -15 -6 10 -7 7 -3 -9 6 -21 5 -21
-22 -11 -36 13 -47 32 -25 41 13 5 11 7 -9 7 -16 1 -26 -4 -26 -14 0 -8 4 -12
9 -9 4 3 8 -2 8 -10 0 -10 -7 -13 -21 -11 -12 3 -19 1 -15 -2 4 -4 25 -8 47
-9 51 -2 54 -6 35 -41 l-16 -28 4 28 c5 30 -5 35 -24 12 -7 -8 -8 -15 -2 -15
8 0 9 -28 3 -73 -1 -5 -6 -5 -13 -1 -6 4 -8 3 -5 -4 9 -14 -3 -43 -14 -36 -5
3 -6 -2 -3 -10 9 -24 -1 -20 -66 30 -59 44 -74 62 -46 51 18 -7 31 24 15 34
-6 4 -9 11 -5 17 3 6 1 23 -5 38 -5 16 -7 26 -4 22 4 -4 13 -1 20 5 10 10 7
17 -17 38 -24 22 -26 28 -13 33 9 3 14 10 10 15 -9 16 9 20 23 5 11 -12 10
-14 -5 -15 -14 0 -12 -3 6 -10 15 -6 21 -14 17 -25 -3 -8 -2 -13 2 -10 4 2 8
-4 8 -14 0 -10 -4 -17 -7 -14 -11 6 -19 -10 -23 -47 -3 -29 -2 -31 9 -16 21
28 26 19 10 -18 -13 -32 -13 -37 1 -42 22 -8 26 0 26 59 -1 51 0 52 13 28 19
-33 19 -21 0 23 -17 42 -19 57 -5 57 5 0 7 -7 4 -15 -4 -8 -1 -15 4 -15 20 0
22 17 4 33 -16 15 -21 17 -40 17 -5 0 -9 7 -9 15 0 17 13 20 22 5 10 -16 24
-2 20 20 -3 18 6 25 28 21 5 -1 6 3 2 8 -3 6 -15 7 -29 1 -13 -5 -28 -5 -32
-2 -5 4 0 -2 11 -12 l20 -19 -22 5 c-12 3 -24 1 -26 -6 -3 -6 -10 1 -17 16 -7
15 -17 25 -22 21 -6 -3 -5 4 1 16 12 22 26 27 36 11 3 -5 13 -6 22 -3 11 4 14
3 9 -5 -4 -8 -2 -10 8 -6 9 3 12 12 9 22 -5 14 -3 14 15 -2 12 -11 22 -16 22
-11 0 4 -8 14 -17 21 -14 9 -21 10 -32 1 -12 -10 -13 -7 -9 16 3 16 1 27 -6
27 -6 0 -5 4 3 9 7 5 12 14 10 20 -3 7 -13 -3 -23 -20 -11 -18 -13 -28 -6 -24
8 5 11 3 8 -6 -3 -8 -13 -14 -24 -14 -10 -1 -25 -4 -32 -8 -6 -5 -12 -4 -12 2
0 10 14 15 33 12 4 0 7 3 7 8 0 5 -11 9 -23 9 -27 0 -67 30 -67 49 0 7 -5 13
-12 13 -6 0 -9 2 -6 5 11 12 37 -7 31 -22 -4 -11 -2 -14 5 -9 7 4 12 2 12 -4
0 -6 5 -8 12 -4 7 4 8 3 4 -4 -4 -7 -1 -12 8 -12 21 0 30 19 12 26 -24 9 -19
26 5 19 16 -5 20 -3 17 6 -3 8 -14 15 -26 15 -40 3 -43 4 -37 14 3 6 0 10 -9
10 -8 0 -16 -5 -18 -12 -3 -7 -7 -4 -12 7 -4 11 -4 16 -1 13 4 -4 18 -3 31 2
20 8 24 6 24 -10 0 -25 23 -17 45 17 12 18 14 28 5 38 -9 10 -7 13 6 11 10 -2
20 -8 22 -14 2 -7 15 2 29 18 21 26 28 29 42 18 14 -12 14 -11 3 4 -8 10 -23
20 -34 24 -16 5 -18 8 -7 15 20 12 31 11 23 -3 -4 -7 -3 -8 4 -4 6 4 9 13 5
22 -4 11 -9 12 -18 4 -8 -7 -15 -7 -19 -1 -3 5 8 14 26 20 23 8 34 8 39 0 4
-7 9 -8 13 -1 7 12 -19 23 -39 16 -10 -4 -15 0 -15 16 0 13 4 19 12 14 7 -4 8
-3 4 4 -11 18 -34 2 -32 -22 2 -13 -3 -23 -10 -23 -7 0 -11 4 -8 9 3 4 1 8 -4
8 -6 0 -13 -7 -16 -16 -3 -8 -2 -12 4 -9 6 3 10 0 10 -9 0 -15 -16 -16 -38 -2
-11 7 -11 4 -1 -13 8 -11 16 -16 19 -11 3 5 16 -2 28 -15 17 -18 19 -25 10
-31 -7 -4 -10 -4 -6 1 15 16 -24 32 -58 25 -20 -5 -37 -3 -43 3 -8 8 -10 3 -5
-21 5 -24 3 -32 -7 -32 -9 0 -7 -5 5 -12 15 -8 21 -8 24 0 2 7 8 10 13 7 5 -4
3 -12 -3 -19 -11 -11 -17 -11 -36 2 -14 9 -19 19 -14 24 14 14 3 48 -14 41 -8
-3 -17 2 -20 11 -5 12 -10 14 -19 6 -6 -5 -14 -8 -17 -5 -2 3 -5 -1 -5 -8 0
-13 5 -15 46 -19 15 -2 17 -5 9 -16 -8 -9 -8 -16 0 -24 7 -7 12 -17 12 -22 0
-6 -5 -3 -11 7 -10 18 -11 18 -26 0 -14 -17 -14 -17 -9 0 5 16 4 17 -15 3 -12
-8 -29 -12 -38 -9 -14 4 -14 3 -1 -6 8 -6 23 -11 33 -11 9 0 17 -4 17 -9 0 -4
-12 -6 -27 -4 -28 5 -28 5 5 -16 17 -11 32 -24 32 -27 0 -4 -7 -1 -15 6 -8 7
-22 10 -30 6 -11 -4 -14 -2 -9 6 4 6 3 8 -4 4 -5 -3 -12 -1 -14 6 -3 9 -6 9
-12 0 -4 -7 -2 -12 3 -12 17 0 13 -21 -6 -37 -17 -14 -17 -14 1 -9 15 5 17 4
7 -8 -6 -8 -10 -18 -9 -22 2 -5 -1 -10 -7 -11 -5 -1 -9 6 -7 15 2 15 1 15 -7
2 -6 -8 -11 -11 -11 -6 0 5 -7 3 -15 -4 -9 -7 -14 -19 -11 -27 4 -8 1 -11 -5
-8 -6 4 -8 13 -5 21 3 8 0 14 -7 14 -8 0 -7 4 3 10 13 9 13 11 0 20 -11 7 -16
5 -18 -5 -2 -8 -8 -15 -13 -15 -12 0 -11 6 6 40 16 31 32 42 22 15 -4 -8 -2
-17 3 -20 4 -3 7 7 5 22 -2 16 7 45 20 68 12 22 32 56 43 76 39 70 175 305
197 339 29 47 57 100 51 100 -2 0 -63 -100 -134 -222z m108 -222 c0 -2 -7 -7
-16 -10 -8 -3 -12 -2 -9 4 6 10 25 14 25 6z m30 -17 c0 -6 -4 -7 -10 -4 -5 3
-10 11 -10 16 0 6 5 7 10 4 6 -3 10 -11 10 -16z m-130 -170 c0 -5 -4 -9 -8 -9
-5 0 -9 7 -9 15 0 8 4 12 9 9 4 -3 8 -9 8 -15z m-219 -23 c5 3 9 0 9 -5 0 -6
-5 -11 -11 -11 -8 0 -8 -4 -1 -12 5 -8 6 -22 1 -33 -4 -11 -8 -14 -8 -7 -1 7
-5 10 -11 7 -5 -3 -10 -2 -10 4 0 5 6 12 13 14 7 4 6 6 -5 6 -9 1 -18 -4 -20
-11 -4 -11 11 -29 61 -73 l23 -20 -3 29 c-2 16 1 31 7 33 7 2 10 -6 7 -22 -4
-16 -1 -25 7 -25 7 0 10 6 7 13 -3 8 1 14 8 14 10 0 11 -5 4 -18 -13 -25 -11
-30 9 -27 12 2 16 -3 14 -15 -3 -19 27 -49 40 -41 4 3 13 -4 20 -16 7 -11 17
-20 23 -20 6 0 16 -9 23 -21 7 -11 19 -18 27 -15 8 3 21 -2 30 -10 15 -15 20
-34 9 -34 -5 0 -307 221 -328 241 -13 12 11 62 26 53 7 -4 8 -3 4 4 -4 7 -4
17 0 24 6 9 9 9 12 0 2 -7 8 -10 13 -6z m86 -32 c11 -10 8 -14 -16 -22 -22 -8
-32 -7 -40 2 -9 10 -6 12 13 9 21 -4 23 -2 20 24 -2 15 -1 21 2 13 4 -8 13
-20 21 -26z m208 -54 c-3 -5 -11 -10 -16 -10 -6 0 -7 5 -4 10 3 6 11 10 16 10
6 0 7 -4 4 -10z m-5 -164 c0 -11 -19 -15 -25 -6 -3 5 1 10 9 10 9 0 16 -2 16
-4z m51 -59 c-10 -9 -11 -8 -5 6 3 10 9 15 12 12 3 -3 0 -11 -7 -18z"/>
<path d="M6226 6397 c3 -10 9 -15 12 -12 3 3 0 11 -7 18 -10 9 -11 8 -5 -6z"/>
<path d="M6620 6360 c6 -11 13 -20 16 -20 2 0 0 9 -6 20 -6 11 -13 20 -16 20
-2 0 0 -9 6 -20z"/>
<path d="M7252 6375 c3 -5 62 -107 130 -225 69 -118 143 -246 164 -285 21 -38
44 -78 49 -87 6 -9 36 -62 68 -117 108 -186 211 -307 365 -423 28 -22 52 -43
52 -46 0 -3 -5 -1 -11 5 -6 6 -18 9 -26 6 -7 -3 -13 -1 -11 4 2 5 -15 24 -37
43 -79 67 -188 176 -226 228 -22 29 -45 50 -50 46 -6 -3 -9 0 -7 7 1 8 -4 28
-12 46 -11 25 -19 31 -40 29 -14 -2 -17 -1 -7 1 21 5 21 7 2 44 -9 16 -20 27
-25 24 -9 -5 -14 7 -12 27 1 3 -5 9 -13 12 -14 5 -17 0 -14 -21 1 -5 5 -7 10
-5 10 2 12 -12 2 -21 -3 -4 -11 1 -18 10 -10 14 -12 13 -9 -8 1 -13 3 -24 4
-24 2 0 4 -9 5 -21 1 -12 -4 -21 -11 -21 -7 0 -11 4 -9 8 7 10 -5 39 -17 39
-5 0 -7 -4 -4 -9 3 -5 -8 -14 -25 -20 -23 -8 -29 -8 -26 2 2 6 10 11 16 9 7
-1 10 2 6 7 -3 7 -15 7 -29 1 -13 -5 -27 -6 -32 -2 -4 4 -4 1 0 -6 4 -7 11
-10 16 -7 7 5 18 -19 26 -60 2 -11 1 -15 -3 -10 -5 6 -14 11 -21 13 -10 2 -10
-2 -2 -18 6 -11 15 -18 20 -15 6 3 18 1 27 -4 15 -9 14 -10 -11 -11 -20 0 -27
-4 -23 -14 3 -7 0 -20 -6 -27 -10 -11 -9 -11 5 0 10 7 15 18 12 23 -3 5 3 4
14 -3 21 -13 21 -13 -6 -32 -24 -16 -24 -18 -4 -12 13 4 22 2 22 -4 0 -6 -6
-11 -12 -11 -7 -1 -3 -9 8 -19 12 -9 24 -26 26 -37 2 -10 8 -19 15 -19 6 0 15
-4 20 -9 5 -6 2 -6 -6 -1 -11 6 -13 4 -8 -9 4 -10 3 -15 -3 -11 -5 3 -15 -5
-21 -19 -7 -14 -16 -23 -22 -19 -6 3 -7 1 -3 -5 4 -7 4 -12 -1 -12 -4 0 -9
-15 -10 -33 l-1 -32 11 30 c7 17 20 31 29 31 14 1 15 -2 8 -16 -5 -9 -6 -21
-2 -25 4 -5 0 -6 -10 -2 -11 4 -15 1 -14 -11 2 -9 9 -18 17 -20 11 -3 11 -1
-1 7 -9 7 -11 11 -3 11 7 0 17 -8 22 -17 6 -10 11 -12 11 -5 0 19 27 14 33 -7
3 -15 0 -19 -13 -16 -17 3 -62 -26 -61 -39 1 -12 26 -34 34 -29 7 4 11 -12 8
-30 -1 -5 3 -6 9 -2 6 3 7 11 4 17 -4 6 1 6 14 -1 29 -16 36 -31 13 -26 -13 2
-22 -3 -26 -16 -4 -11 -11 -16 -17 -13 -6 4 -6 -1 1 -14 7 -12 7 -23 2 -26 -5
-4 -12 0 -14 6 -3 7 -6 3 -6 -9 -1 -13 -6 -23 -13 -23 -6 0 -8 -3 -5 -7 11
-10 57 38 50 51 -4 6 1 5 10 -3 9 -7 17 -12 18 -10 0 2 2 12 4 21 4 23 63 79
70 67 4 -5 0 -9 -7 -9 -8 -1 -6 -6 6 -15 11 -8 15 -15 9 -15 -6 0 -10 -7 -9
-16 3 -21 38 -47 46 -34 3 5 11 1 18 -10 7 -12 8 -21 2 -25 -6 -4 -9 -3 -8 2
2 4 1 9 -2 10 -3 1 -22 9 -43 18 -33 14 -40 14 -52 1 -8 -8 -15 -18 -15 -22 0
-5 5 -3 12 4 17 17 48 15 48 -4 0 -10 -6 -14 -15 -10 -8 3 -16 2 -16 -2 -7
-35 -4 -54 7 -59 11 -4 10 -10 -3 -29 -9 -15 -11 -24 -4 -24 6 0 11 6 11 14 0
24 14 26 40 6 19 -14 22 -21 12 -32 -9 -12 -4 -18 31 -33 23 -11 45 -19 48
-18 4 1 6 -5 5 -15 -1 -12 6 -17 22 -16 30 1 28 -8 -5 -23 -33 -16 -43 -16
-43 -2 0 5 4 8 9 4 5 -3 12 -1 16 5 3 5 -3 10 -14 10 -14 0 -19 5 -15 15 4 8
1 15 -6 15 -7 0 -10 -8 -7 -20 6 -24 -20 -41 -52 -35 -27 5 -28 -12 -1 -20 11
-3 20 -11 20 -16 0 -6 -4 -8 -9 -5 -5 4 -20 2 -33 -3 -16 -7 -18 -10 -6 -10 9
-1 25 -9 34 -18 17 -17 18 -17 11 0 -3 9 -2 17 3 17 6 0 10 8 10 18 0 13 2 14
9 3 5 -8 14 -10 22 -5 8 4 29 9 48 11 33 3 58 22 43 33 -4 3 -7 12 -7 20 0 8
-6 16 -12 16 -26 3 -28 5 -10 15 9 5 21 8 26 5 5 -4 7 4 3 16 -5 21 -4 22 11
9 15 -12 17 -11 17 3 0 9 5 16 12 16 6 0 8 -3 5 -7 -4 -3 -3 -11 2 -17 6 -8
-1 -33 -21 -71 -35 -70 -48 -86 -48 -61 0 13 -5 16 -17 11 -10 -3 -30 -9 -45
-12 -15 -3 -25 -9 -22 -14 3 -5 0 -9 -5 -9 -6 0 -11 -7 -11 -16 0 -9 -5 -12
-12 -8 -7 5 -8 3 -3 -6 6 -10 11 -9 23 6 14 18 14 18 9 -3 -3 -13 -2 -23 3
-23 4 0 5 -11 2 -25 -3 -16 0 -25 8 -25 7 0 10 7 6 16 -3 8 -2 13 3 10 5 -4 7
12 4 34 -5 35 -3 41 18 49 30 11 45 -1 30 -26 -10 -17 -10 -17 -11 0 0 10 -5
15 -10 12 -8 -5 -8 -11 0 -20 8 -10 1 -32 -29 -92 -21 -43 -46 -86 -54 -97
-13 -18 -15 -16 -40 29 -30 53 -32 59 -15 49 7 -4 8 -3 4 5 -4 6 -10 9 -14 7
-4 -2 -58 87 -120 199 -77 138 -110 208 -106 221 4 14 3 15 -4 6 -7 -10 -19 3
-46 53 -20 36 -34 70 -31 75 3 4 2 16 -1 25 -5 12 -9 13 -14 5 -4 -7 -23 17
-47 62 -22 40 -67 120 -100 178 -79 140 -82 144 -298 535 -104 187 -193 345
-198 350 -21 22 109 -213 918 -1665 51 -91 96 -164 101 -164 10 2 124 211 299
550 l115 222 -88 65 c-102 76 -232 207 -289 292 -22 33 -140 233 -262 445
-122 212 -227 390 -233 395 -7 7 -9 7 -6 0z m387 -732 c0 -11 -3 -13 -6 -5 -2
6 -10 9 -15 6 -7 -4 -8 -2 -4 4 11 18 26 14 25 -5z m-26 -28 c-3 -9 -8 -14
-10 -11 -3 3 -2 9 2 15 9 16 15 13 8 -4z m3 -324 c-6 -9 -46 -22 -46 -15 0 3
10 9 23 14 29 11 29 11 23 1z m-26 -37 c0 -8 -19 -13 -24 -6 -3 5 1 9 9 9 8 0
15 -2 15 -3z m25 -24 c-3 -5 -16 -10 -28 -9 -20 1 -20 2 3 9 14 4 26 8 28 9 2
1 0 -3 -3 -9z m444 -166 c-28 -54 -67 -128 -86 -164 -19 -36 -38 -64 -43 -63
-5 2 -7 -4 -4 -12 4 -8 2 -15 -3 -15 -5 0 -10 6 -10 13 0 6 -3 22 -7 33 -5 15
-2 24 10 28 13 5 14 4 6 -7 -11 -13 -7 -27 9 -27 8 0 24 50 20 65 -2 5 1 7 5
2 10 -10 115 184 109 201 -3 7 -1 10 4 7 5 -3 16 11 23 31 7 20 14 30 16 22 1
-8 -21 -59 -49 -114z m-399 110 c0 -8 -19 -13 -24 -6 -3 5 1 9 9 9 8 0 15 -2
15 -3z m-35 -31 c-2 -7 0 -13 5 -13 6 0 10 5 10 10 0 6 5 10 10 10 6 0 6 -7
-2 -19 -6 -11 -18 -17 -26 -13 -11 4 -13 1 -7 -8 5 -9 4 -11 -3 -6 -7 4 -22 9
-33 11 -29 6 -35 13 -21 27 9 9 12 9 12 0 0 -7 9 -12 21 -12 11 0 17 5 14 10
-4 6 -11 8 -16 5 -5 -4 -9 -2 -9 3 0 6 11 9 25 8 16 0 23 -6 20 -13z m32 -59
c-3 -3 -12 -4 -19 -1 -8 3 -5 6 6 6 11 1 17 -2 13 -5z m-43 -39 c-4 -8 -11
-12 -16 -9 -6 4 -5 10 3 15 19 12 19 11 13 -6z m171 -24 c3 -5 2 -12 -3 -15
-5 -3 -9 1 -9 9 0 17 3 19 12 6z m-109 -80 c-3 -5 1 -12 10 -15 26 -10 52 -7
57 7 3 6 4 -3 3 -21 -3 -31 -16 -58 -16 -33 0 7 -5 9 -10 6 -13 -8 -56 26 -54
43 2 19 4 22 10 22 3 0 3 -4 0 -9z m54 5 c0 -11 -19 -15 -25 -6 -3 5 1 10 9
10 9 0 16 -2 16 -4z m70 -18 c0 -6 -3 -8 -7 -5 -3 4 -11 2 -18 -3 -8 -7 -12
-5 -12 5 0 8 4 12 9 9 4 -3 8 0 8 6 0 6 5 8 10 5 6 -3 10 -11 10 -17z m104 -4
c3 -8 2 -12 -4 -9 -6 3 -10 10 -10 16 0 14 7 11 14 -7z m-44 0 c0 -8 -19 -13
-24 -6 -3 5 1 9 9 9 8 0 15 -2 15 -3z m-12 -27 c15 4 15 3 2 -6 -15 -11 -10
-14 25 -12 11 0 14 -2 8 -5 -7 -3 -13 -10 -13 -15 0 -6 4 -8 9 -4 5 3 13 0 17
-6 5 -9 -1 -10 -20 -5 -15 4 -25 3 -23 -1 3 -5 0 -19 -7 -32 -8 -14 -16 -19
-20 -13 -3 5 -14 8 -25 5 -14 -3 -20 2 -23 21 -3 15 -1 29 3 32 5 3 9 -6 9
-20 0 -14 5 -26 11 -26 6 0 8 8 5 18 -5 14 -3 13 9 -3 14 -17 17 -18 25 -5 7
11 5 19 -8 29 -16 13 -16 13 1 8 21 -8 23 11 2 19 -8 4 -15 14 -14 23 0 9 3
11 5 4 3 -7 13 -9 22 -6z m-41 -22 c0 -20 -4 -19 -17 5 -8 15 -8 18 3 14 8 -3
14 -11 14 -19z m-58 -32 c-12 -15 -12 -16 4 -10 9 3 17 2 17 -3 0 -6 -9 -10
-20 -10 -11 0 -20 2 -20 4 0 14 14 36 22 36 6 0 4 -8 -3 -17z m101 -117 c0
-11 -19 -15 -25 -6 -3 5 1 10 9 10 9 0 16 -2 16 -4z"/>
<path d="M7687 4910 c15 -16 53 -21 53 -8 0 5 -8 8 -17 6 -10 -1 -25 1 -33 6
-12 7 -13 6 -3 -4z"/>
<path d="M6241 6348 c0 -14 -4 -35 -7 -45 -5 -17 -5 -17 6 0 6 10 9 30 7 45
l-4 27 -2 -27z"/>
<path d="M6660 6290 c11 -22 23 -40 25 -40 3 0 -4 18 -15 40 -11 22 -23 40
-25 40 -3 0 4 -18 15 -40z"/>
<path d="M6074 6256 c11 -9 24 -16 30 -16 12 0 7 5 -24 19 -24 11 -24 11 -6
-3z"/>
<path d="M6230 6267 c0 -5 22 -50 49 -100 27 -51 85 -159 128 -242 265 -499
278 -523 327 -560 41 -31 168 -85 200 -84 11 0 -4 8 -34 18 -79 25 -174 78
-198 110 -22 30 -161 283 -315 576 -115 219 -157 293 -157 282z"/>
<path d="M6128 6233 c6 -2 18 -2 25 0 6 3 1 5 -13 5 -14 0 -19 -2 -12 -5z"/>
<path d="M6190 6231 c0 -6 4 -13 10 -16 6 -3 7 1 4 9 -7 18 -14 21 -14 7z"/>
<path d="M6456 6227 c3 -10 9 -15 12 -12 3 3 0 11 -7 18 -10 9 -11 8 -5 -6z"/>
<path d="M5950 6183 c14 -16 53 -57 87 -93 34 -36 76 -90 92 -120 17 -30 31
-50 31 -45 0 24 -63 116 -111 163 -29 29 -50 55 -46 58 12 12 125 -107 153
-161 16 -30 30 -52 32 -50 2 2 -9 27 -24 55 -27 50 -171 196 -182 185 -3 -3
-11 4 -19 15 -8 11 -19 20 -25 20 -6 0 -1 -12 12 -27z"/>
<path d="M6241 6143 c18 -32 55 -98 84 -148 29 -49 105 -189 170 -310 164
-307 173 -322 225 -356 41 -27 228 -94 237 -85 3 2 -20 12 -49 21 -128 41
-186 67 -215 98 -17 17 -79 122 -139 232 -194 360 -331 605 -340 605 -3 0 9
-26 27 -57z"/>
<path d="M8170 6159 c0 -5 -4 -7 -10 -4 -5 3 -10 2 -10 -3 0 -19 26 -20 27 -1
1 10 0 19 -3 19 -2 0 -4 -5 -4 -11z"/>
<path d="M6545 6054 c57 -108 88 -156 64 -99 -7 17 -23 46 -34 65 -12 19 -32
57 -45 83 -14 27 -29 51 -34 54 -5 4 17 -43 49 -103z"/>
<path d="M8195 6150 c-3 -5 -1 -10 4 -10 6 0 11 5 11 10 0 6 -2 10 -4 10 -3 0
-8 -4 -11 -10z"/>
<path d="M8309 6143 c0 -5 -2 -16 -4 -25 -2 -10 0 -20 4 -22 3 -2 7 9 7 25 1
16 0 29 -2 29 -2 0 -4 -3 -5 -7z"/>
<path d="M6590 6131 c0 -6 4 -13 10 -16 6 -3 7 1 4 9 -7 18 -14 21 -14 7z"/>
<path d="M8227 6115 c-4 -8 -3 -16 1 -19 4 -3 9 4 9 15 2 23 -3 25 -10 4z"/>
<path d="M8715 5979 c-43 -85 -73 -149 -67 -144 16 17 153 287 148 292 -3 3
-39 -64 -81 -148z"/>
<path d="M8136 6102 c-3 -5 1 -9 9 -9 8 0 12 4 9 9 -3 4 -7 8 -9 8 -2 0 -6 -4
-9 -8z"/>
<path d="M8090 6080 c0 -5 5 -10 11 -10 5 0 7 5 4 10 -3 6 -8 10 -11 10 -2 0
-4 -4 -4 -10z"/>
<path d="M6620 6074 c0 -6 7 -19 16 -30 14 -18 14 -18 3 6 -14 31 -19 36 -19
24z"/>
<path d="M7985 6050 c-4 -6 -11 -7 -17 -4 -7 4 -8 2 -4 -4 10 -16 23 -15 30 3
6 17 0 20 -9 5z"/>
<path d="M8066 6021 c8 -8 43 -8 38 0 -2 4 -13 7 -24 6 -10 -1 -17 -3 -14 -6z"/>
<path d="M9294 5981 c-30 -18 -54 -64 -54 -102 0 -11 -32 -40 -87 -78 -85 -60
-87 -61 -138 -55 -88 11 -145 -40 -145 -130 0 -25 -21 -76 -73 -173 -41 -76
-104 -197 -140 -268 -58 -115 -72 -134 -111 -159 -64 -40 -72 -52 -187 -256
-158 -283 -188 -340 -179 -340 5 0 13 7 18 16 5 9 12 15 15 15 4 -1 11 -1 16
-1 8 0 127 210 232 408 37 72 50 86 94 111 28 16 57 36 64 45 7 9 72 134 143
278 71 145 131 264 133 266 1 2 18 -6 36 -17 41 -25 67 -26 113 -5 59 29 76
81 51 160 -5 17 7 29 78 76 82 55 86 56 102 38 71 -78 195 -25 195 84 0 30 -7
45 -34 72 -40 40 -92 46 -142 15z m116 -6 c50 -26 64 -79 36 -134 -21 -39 -41
-53 -80 -54 -73 -2 -125 58 -106 122 21 73 83 100 150 66z m-164 -134 c-3 -4
-44 -34 -91 -66 -47 -31 -85 -59 -85 -61 0 -3 7 -19 16 -36 21 -40 6 -98 -32
-123 -56 -36 -151 -9 -141 41 5 30 -1 31 -13 2 -7 -19 -9 -16 -9 19 -1 63 14
92 56 110 30 12 46 13 76 6 36 -10 41 -8 130 53 95 66 102 70 93 55z m-498
-548 c-67 -137 -130 -258 -142 -271 -11 -13 -41 -35 -67 -48 -40 -23 -52 -37
-101 -132 -98 -187 -114 -216 -153 -287 -37 -66 -75 -118 -75 -102 0 11 47
102 105 202 28 50 64 113 79 140 76 136 107 182 128 192 55 25 91 69 145 177
76 152 194 376 198 376 2 0 -51 -111 -117 -247z"/>
<path d="M9309 5929 c-23 -23 -19 -51 14 -87 37 -40 97 -10 97 48 0 55 -70 80
-111 39z m85 -5 c19 -18 21 -55 4 -72 -7 -7 -24 -12 -38 -12 -14 0 -31 5 -38
12 -7 7 -12 24 -12 38 0 14 5 31 12 38 17 17 54 15 72 -4z"/>
<path d="M8950 5685 c-7 -8 -16 -13 -20 -10 -4 2 -4 -15 1 -38 4 -23 8 -45 9
-49 0 -5 3 -7 8 -6 4 1 17 -1 29 -6 12 -4 31 -3 41 3 12 6 23 6 28 1 8 -8 11
33 5 77 -4 38 -76 58 -101 28z m74 -8 c22 -16 18 -65 -5 -80 -47 -29 -101 32
-64 73 21 23 44 25 69 7z"/>
<path d="M8978 5553 c7 -3 16 -2 19 1 4 3 -2 6 -13 5 -11 0 -14 -3 -6 -6z"/>
<path d="M6700 5920 c17 -33 33 -60 35 -60 3 0 -8 27 -25 60 -17 33 -33 60
-35 60 -3 0 8 -27 25 -60z"/>
<path d="M7975 5960 c-3 -6 1 -7 9 -4 18 7 21 14 7 14 -6 0 -13 -4 -16 -10z"/>
<path d="M8271 5944 c0 -11 3 -14 6 -6 3 7 2 16 -1 19 -3 4 -6 -2 -5 -13z"/>
<path d="M8305 5951 c-3 -5 -2 -12 3 -15 5 -3 9 1 9 9 0 17 -3 19 -12 6z"/>
<path d="M7886 5928 c3 -5 10 -6 15 -3 13 9 11 12 -6 12 -8 0 -12 -4 -9 -9z"/>
<path d="M8121 5916 c-8 -10 -3 -13 19 -13 34 0 40 12 10 20 -10 3 -24 -1 -29
-7z"/>
<path d="M8445 5919 c-4 -6 -4 -13 -1 -16 3 -4 6 -1 6 6 0 7 5 9 12 5 7 -4 8
-3 4 4 -9 15 -13 15 -21 1z"/>
<path d="M6190 5915 c0 -5 5 -17 10 -25 5 -8 10 -10 10 -5 0 6 -5 17 -10 25
-5 8 -10 11 -10 5z"/>
<path d="M6620 5918 c0 -12 159 -300 175 -318 24 -27 114 -84 121 -77 9 8 -6
28 -16 22 -5 -3 -12 0 -16 6 -5 8 -3 9 6 4 9 -5 10 -2 6 12 -8 24 -146 283
-151 283 -5 0 6 -32 15 -45 11 -16 120 -222 120 -228 0 -11 -52 1 -65 14 -8 8
-53 84 -100 169 -86 153 -95 169 -95 158z"/>
<path d="M8127 5888 c-14 -11 -14 -16 -3 -31 12 -16 14 -16 20 -2 3 9 2 13 -3
10 -5 -3 -12 -1 -16 5 -6 9 8 14 28 11 5 -1 6 3 2 9 -8 13 -8 13 -28 -2z"/>
<path d="M8420 5866 c0 -2 7 -7 16 -10 8 -3 12 -2 9 4 -6 10 -25 14 -25 6z"/>
<path d="M6222 5830 c0 -8 6 -31 13 -50 7 -19 13 -28 13 -20 0 8 -6 31 -13 50
-7 19 -13 28 -13 20z"/>
<path d="M8240 5830 c-9 -6 -10 -10 -3 -10 6 0 15 5 18 10 8 12 4 12 -15 0z"/>
<path d="M8400 5816 c0 -8 4 -18 10 -21 6 -4 7 1 3 11 -5 13 -3 15 7 9 9 -5
11 -4 6 3 -10 17 -26 15 -26 -2z"/>
<path d="M8206 5793 c-6 -14 -5 -15 5 -6 7 7 10 15 7 18 -3 3 -9 -2 -12 -12z"/>
<path d="M6212 5750 c0 -14 2 -19 5 -12 2 6 2 18 0 25 -3 6 -5 1 -5 -13z"/>
<path d="M7508 5733 c-5 -39 3 -42 19 -8 6 14 7 23 3 20 -5 -3 -10 1 -13 7 -2
7 -6 -2 -9 -19z"/>
<path d="M7577 5753 c-12 -12 -7 -19 14 -20 17 -2 18 1 9 13 -14 16 -14 16
-23 7z"/>
<path d="M8223 5730 c-1 -11 2 -20 8 -20 5 0 9 9 9 20 0 11 -4 20 -8 20 -4 0
-8 -9 -9 -20z"/>
<path d="M6252 5720 c0 -14 2 -19 5 -12 2 6 2 18 0 25 -3 6 -5 1 -5 -13z"/>
<path d="M8100 5731 c0 -5 5 -13 10 -16 6 -3 10 -2 10 4 0 5 -4 13 -10 16 -5
3 -10 2 -10 -4z"/>
<path d="M7552 5713 c2 -10 -2 -18 -9 -18 -6 0 -15 -4 -20 -9 -4 -5 -3 -6 4
-2 7 3 13 -1 15 -11 3 -14 8 -11 21 14 15 27 15 32 1 37 -10 4 -14 0 -12 -11z"/>
<path d="M6222 5695 c0 -16 2 -22 5 -12 2 9 2 23 0 30 -3 6 -5 -1 -5 -18z"/>
<path d="M8342 5684 c-7 -8 -17 -12 -21 -10 -4 3 -8 -1 -8 -9 0 -23 23 -17 41
10 18 27 9 34 -12 9z"/>
<path d="M6268 5585 c5 -121 16 -157 65 -201 l31 -29 -33 39 c-43 51 -51 74
-52 154 0 37 -4 85 -8 107 -5 25 -6 -1 -3 -70z"/>
<path d="M7430 5668 c0 -4 7 -8 15 -8 8 0 15 4 15 8 0 5 -7 9 -15 9 -8 0 -15
-4 -15 -9z"/>
<path d="M7482 5667 c-8 -9 -4 -13 19 -13 24 -1 27 1 18 12 -14 17 -24 18 -37
1z"/>
<path d="M6232 5560 c-1 -52 2 -100 6 -107 4 -6 6 26 4 70 -4 126 -9 142 -10
37z"/>
<path d="M8096 5627 c3 -10 9 -15 12 -12 3 3 0 11 -7 18 -10 9 -11 8 -5 -6z"/>
<path d="M8195 5470 c3 -5 8 -10 11 -10 2 0 4 5 4 10 0 6 -5 10 -11 10 -5 0
-7 -4 -4 -10z"/>
<path d="M8140 5441 l-24 -7 24 -17 c31 -22 46 -22 29 0 -10 11 -10 14 -1 9 6
-4 12 -3 12 3 0 15 -12 19 -40 12z"/>
<path d="M6250 5425 c0 -17 197 -180 301 -249 31 -20 105 -54 165 -74 108 -37
109 -37 146 -92 42 -64 194 -313 310 -507 43 -73 81 -133 84 -133 6 0 -2 15
-89 162 -148 250 -311 513 -326 529 -9 9 -65 33 -124 53 -60 20 -127 48 -150
63 -66 41 -217 159 -269 210 -27 25 -48 42 -48 38z"/>
<path d="M7481 5414 c0 -11 3 -14 6 -6 3 7 2 16 -1 19 -3 4 -6 -2 -5 -13z"/>
<path d="M7495 5360 c-18 -20 -18 -21 0 -14 11 5 16 4 12 -2 -3 -6 -1 -16 4
-24 8 -11 9 -6 6 17 -3 32 -3 33 16 15 19 -16 20 -16 8 6 -14 27 -23 28 -46 2z"/>
<path d="M6385 5341 c19 -23 75 -66 75 -59 0 2 -21 21 -47 43 -27 21 -39 28
-28 16z"/>
<path d="M7017 5304 c-10 -13 -27 -24 -37 -24 -11 0 -20 -4 -20 -9 0 -13 54 0
63 15 14 24 24 16 60 -48 19 -35 53 -96 76 -137 22 -40 38 -78 34 -84 -3 -5
-2 -7 4 -4 13 8 82 -122 76 -143 -3 -11 -2 -12 4 -3 6 9 20 -9 46 -56 20 -37
33 -72 29 -76 -4 -5 -2 -6 3 -2 6 3 30 -31 53 -75 34 -66 39 -84 30 -97 -10
-13 -10 -14 2 -4 11 11 19 4 42 -39 15 -28 28 -57 28 -65 0 -7 4 -13 10 -13 5
0 24 -27 41 -61 16 -34 32 -59 35 -57 4 5 -157 305 -281 524 -101 177 -146
258 -210 372 -31 56 -60 104 -64 106 -3 2 -14 -7 -24 -20z"/>
<path d="M7480 5309 c0 -5 5 -7 10 -4 6 3 10 8 10 11 0 2 -4 4 -10 4 -5 0 -10
-5 -10 -11z"/>
<path d="M6504 5247 c50 -44 137 -88 254 -130 92 -33 93 -34 137 -100 114
-169 406 -652 400 -659 -2 -2 5 -9 16 -16 24 -15 17 -3 -127 233 -294 482
-321 522 -353 530 -79 20 -226 83 -291 126 -59 39 -67 43 -36 16z"/>
<path d="M7455 5228 c-27 -18 -28 -19 -5 -13 26 8 47 22 39 28 -2 3 -17 -4
-34 -15z"/>
<path d="M7480 5200 c0 -5 5 -10 11 -10 5 0 7 5 4 10 -3 6 -8 10 -11 10 -2 0
-4 -4 -4 -10z"/>
<path d="M7037 5170 c20 -34 252 -449 402 -720 41 -74 83 -151 94 -170 18 -32
62 -67 127 -100 23 -12 24 -12 11 3 -7 10 -20 17 -28 17 -8 0 -25 11 -39 25
-13 13 -28 24 -32 23 -4 -1 -21 23 -37 53 -50 88 -117 212 -133 244 -8 17 -25
44 -38 61 -18 24 -20 34 -11 44 9 10 9 11 0 6 -7 -4 -17 2 -22 13 -14 26 -14
34 1 25 7 -4 8 -3 4 5 -4 6 -11 9 -15 6 -5 -2 -23 21 -40 53 -17 31 -44 81
-61 109 -17 30 -27 61 -24 70 4 12 3 14 -3 6 -6 -9 -20 8 -46 55 -81 148 -99
178 -114 192 -11 10 -9 3 4 -20z"/>
<path d="M7499 5168 c-5 -18 -6 -38 -1 -34 7 8 12 36 6 36 -2 0 -4 -1 -5 -2z"/>
<path d="M7480 5101 c0 -5 7 -12 16 -15 14 -5 15 -4 4 9 -14 17 -20 19 -20 6z"/>
<path d="M7543 5075 c-10 -10 -9 -15 4 -19 20 -8 22 -5 14 15 -5 14 -8 15 -18
4z"/>
<path d="M7660 5040 c-6 -11 -7 -20 -2 -20 6 0 12 9 15 20 3 11 3 20 1 20 -2
0 -8 -9 -14 -20z"/>
<path d="M7607 4969 c4 -13 8 -18 11 -10 2 7 -1 18 -6 23 -8 8 -9 4 -5 -13z"/>
<path d="M7546 4904 c-23 -23 -20 -30 4 -9 11 10 20 20 20 22 0 7 -9 2 -24
-13z"/>
<path d="M7590 4900 c-13 -8 -12 -10 3 -10 9 0 17 -5 17 -12 0 -6 3 -9 6 -5 3
3 2 12 -3 21 -6 10 -13 12 -23 6z"/>
<path d="M7560 4871 c0 -6 4 -13 10 -16 6 -3 7 1 4 9 -7 18 -14 21 -14 7z"/>
<path d="M7680 4861 c0 -5 6 -12 13 -14 7 -3 5 -6 -5 -6 -10 -1 -18 -8 -18
-16 0 -12 3 -12 20 2 24 21 25 29 5 37 -8 3 -15 1 -15 -3z"/>
<path d="M7595 4850 c3 -5 8 -10 11 -10 2 0 4 5 4 10 0 6 -5 10 -11 10 -5 0
-7 -4 -4 -10z"/>
<path d="M7635 4829 c-11 -17 1 -21 15 -4 8 9 8 15 2 15 -6 0 -14 -5 -17 -11z"/>
<path d="M7585 4820 c-3 -6 1 -7 9 -4 18 7 21 14 7 14 -6 0 -13 -4 -16 -10z"/>
<path d="M7575 4790 c4 -6 11 -8 16 -5 14 9 11 15 -7 15 -8 0 -12 -5 -9 -10z"/>
<path d="M7671 4784 c5 -6 6 -14 2 -17 -3 -4 -1 -7 5 -7 6 0 13 8 15 18 3 13
8 9 18 -15 15 -36 24 -41 33 -17 3 8 2 12 -3 9 -5 -3 -12 -1 -15 4 -4 5 3 12
14 16 20 7 28 25 10 25 -5 0 -10 -4 -10 -10 0 -5 -7 -10 -15 -10 -8 0 -15 4
-15 9 0 5 -11 8 -24 7 -16 -1 -21 -5 -15 -12z"/>
<path d="M7352 4700 c0 -14 2 -19 5 -12 2 6 2 18 0 25 -3 6 -5 1 -5 -13z"/>
<path d="M7683 4636 c0 -7 6 -13 14 -13 7 0 13 4 13 8 0 4 -6 9 -13 12 -8 3
-14 0 -14 -7z"/>
<path d="M7516 4403 c-6 -14 -5 -15 5 -6 7 7 10 15 7 18 -3 3 -9 -2 -12 -12z"/>
<path d="M7586 4295 c4 -8 10 -13 15 -10 4 3 15 -7 23 -22 20 -37 20 -21 1 17
-16 30 -49 43 -39 15z"/>
<path d="M5326 3353 c80 -4 82 -4 94 -34 7 -16 17 -32 22 -35 5 -3 0 12 -11
35 l-21 41 -83 -2 -82 -2 81 -3z"/>
<path d="M5867 3305 c-15 -30 -25 -55 -22 -55 3 0 16 23 30 51 l26 51 75 -4
c41 -2 74 0 74 5 0 4 -35 7 -78 7 l-78 0 -27 -55z"/>
<path d="M6315 3354 c40 -7 406 -9 383 -3 -13 4 -108 7 -213 7 -104 -1 -181
-2 -170 -4z"/>
<path d="M7000 3295 l0 -65 115 0 115 0 0 -245 0 -245 70 0 70 0 0 245 0 245
120 0 120 0 0 65 0 65 -305 0 -305 0 0 -65z m600 -2 l0 -53 -120 0 -120 0 -2
-222 -3 -223 -2 178 c-3 137 -6 176 -16 171 -9 -5 -9 -4 1 7 6 7 12 18 12 23
0 6 -5 4 -10 -4 -8 -13 -12 -13 -32 -1 l-23 14 20 -23 20 -23 -22 12 c-15 8
-23 8 -23 1 0 -5 6 -10 12 -10 7 0 3 -7 -9 -15 -21 -15 -41 -61 -20 -48 6 4 8
0 4 -10 -4 -10 -1 -17 6 -17 8 0 8 -3 -1 -9 -8 -4 -13 -17 -12 -27 1 -11 1
-21 0 -24 -1 -3 -4 -52 -7 -110 -4 -91 -2 -106 13 -117 19 -14 15 -17 -10 -7
-14 5 -16 36 -16 245 l0 239 -115 0 -115 0 0 53 0 52 295 0 295 0 0 -52z"/>
<path d="M7307 3189 c7 -7 15 -10 18 -7 3 3 -2 9 -12 12 -14 6 -15 5 -6 -5z"/>
<path d="M7750 3051 l0 -311 70 0 70 0 0 101 0 100 135 -2 c74 -2 132 -5 130
-7 -5 -5 101 -135 138 -170 22 -21 32 -23 113 -20 l89 3 -97 100 -96 100 40
19 c26 12 51 35 70 65 27 43 29 52 26 127 -3 71 -6 85 -32 118 -16 21 -50 48
-75 60 -43 19 -65 21 -313 24 l-268 3 0 -310z m601 263 c51 -30 79 -86 79
-161 0 -89 -27 -145 -85 -175 -11 -6 -1 7 21 28 24 23 44 52 47 69 8 44 5 105
-5 105 -5 0 -6 5 -2 12 5 7 3 8 -6 3 -10 -6 -12 -4 -7 9 4 10 3 15 -3 11 -6
-3 -13 0 -16 8 -7 20 -34 17 -34 -5 0 -10 -7 -18 -15 -18 -8 0 -15 -5 -15 -10
0 -6 6 -10 13 -9 26 3 38 -1 31 -12 -4 -8 -9 -7 -16 2 -6 10 -8 7 -7 -11 2
-39 0 -50 -11 -50 -5 0 -11 15 -11 33 -1 31 -1 31 -9 -7 -14 -71 -28 -76 -231
-76 l-179 0 0 85 0 85 171 0 c172 0 200 -5 226 -39 7 -9 13 -11 13 -5 0 6 -9
19 -21 30 -19 17 -41 19 -210 22 l-189 3 0 -90 c0 -54 -4 -91 -10 -91 -5 0
-10 14 -10 30 0 17 -4 30 -10 30 -15 0 -12 57 3 64 10 5 10 7 0 12 -7 3 -13
12 -13 20 0 9 -4 12 -10 9 -5 -3 -7 0 -4 8 3 8 1 18 -5 22 -6 3 -11 -1 -11
-10 0 -9 -4 -14 -8 -11 -4 2 -14 1 -22 -4 -12 -7 -9 -11 10 -20 20 -8 21 -10
4 -7 -21 4 -22 3 -23 -201 -1 -114 -4 -208 -7 -211 -2 -2 -4 120 -4 272 l0
277 208 2 c257 4 339 -2 383 -28z m25 -121 c21 -19 24 -36 10 -50 -5 -4 -6 -3
-2 4 4 7 -2 21 -14 33 -32 32 -27 42 6 13z m-66 -100 c0 -18 -58 -59 -68 -49
-2 3 7 11 22 17 14 7 28 20 31 31 8 23 15 23 15 1z m-257 -140 c-29 -2 -78 -2
-110 0 -32 2 -8 3 52 3 61 0 87 -1 58 -3z m-173 -108 c0 -52 -3 -95 -7 -95 -5
0 -7 37 -7 83 2 98 3 107 9 107 3 0 5 -43 5 -95z m421 78 c13 -16 12 -17 -3
-4 -10 7 -18 15 -18 17 0 8 8 3 21 -13z m-66 -64 c27 -35 45 -60 39 -57 -5 4
-32 35 -59 69 -27 35 -45 60 -39 57 5 -4 32 -35 59 -69z m146 -14 l43 -50 -43
40 c-23 22 -47 49 -53 60 -12 23 -7 18 53 -50z m28 -93 c-73 -4 -109 3 -109
20 0 9 3 9 12 0 7 -7 40 -12 76 -12 60 0 63 1 51 18 -10 12 -8 12 10 -3 l23
-20 -63 -3z m-564 3 c6 -2 -11 -4 -37 -4 -27 -1 -48 3 -48 7 0 7 62 5 85 -3z"/>
<path d="M7953 3323 c9 -2 25 -2 35 0 9 3 1 5 -18 5 -19 0 -27 -2 -17 -5z"/>
<path d="M8180 3285 c-10 -12 -9 -16 4 -21 9 -4 20 -4 23 0 4 3 -2 6 -12 6
-14 0 -15 3 -5 15 7 8 10 15 7 15 -2 0 -10 -7 -17 -15z"/>
<path d="M7966 3272 c-3 -4 4 -9 15 -9 23 -2 25 3 4 10 -8 4 -16 3 -19 -1z"/>
<path d="M8245 3269 c-4 -6 -5 -12 -2 -15 2 -3 7 2 10 11 7 17 1 20 -8 4z"/>
<path d="M8284 3263 c1 -8 8 -18 15 -23 8 -4 10 -13 7 -19 -4 -6 -2 -11 3 -11
15 0 14 23 -1 39 -11 10 -9 11 6 5 14 -5 17 -3 14 7 -6 19 -46 21 -44 2z"/>
<path d="M8506 3338 c10 -13 90 -95 176 -183 l158 -160 0 -127 0 -128 70 0 70
0 0 133 0 133 60 59 c32 32 56 63 53 68 -3 6 -1 7 4 4 11 -7 213 196 213 213
0 6 -35 10 -82 10 l-81 0 -121 -120 -122 -120 -119 120 -120 120 -89 0 -89 0
19 -22z m252 -86 c107 -109 143 -152 77 -92 -27 25 -55 53 -63 63 -7 9 -18 14
-24 11 -6 -4 -8 -3 -5 3 10 16 -32 43 -68 43 -19 0 -35 5 -35 11 0 6 -9 9 -20
6 -11 -3 -18 -1 -14 4 3 5 0 9 -5 9 -6 0 -11 -7 -11 -15 0 -9 9 -15 25 -15 16
0 25 -6 25 -16 0 -8 -4 -12 -10 -9 -19 12 -10 -9 16 -36 15 -15 32 -25 39 -23
7 3 17 -8 24 -26 l11 -32 -38 33 c-20 19 -68 66 -105 106 l-69 71 82 -4 81 -4
87 -88z m485 88 c30 0 46 -4 42 -10 -4 -6 -11 -8 -16 -4 -5 3 -8 1 -7 -4 3 -9
-99 -121 -138 -152 -17 -14 -18 -13 -7 1 7 9 12 18 10 20 -1 2 0 3 2 1 10 -5
71 63 71 79 0 11 9 19 22 21 13 2 24 11 27 23 3 20 3 20 -18 1 -18 -16 -21
-17 -26 -4 -10 25 -68 17 -80 -10 -5 -12 -14 -22 -19 -22 -6 0 -29 -19 -53
-42 -23 -23 -45 -39 -48 -37 -3 3 29 38 70 78 61 59 80 72 98 67 12 -3 44 -6
70 -6z m-93 -41 c-7 -11 -14 -19 -16 -16 -7 7 7 37 17 37 6 0 5 -9 -1 -21z
m-411 -56 c-4 -22 2 -33 14 -27 7 4 9 3 4 -2 -5 -5 -12 -9 -15 -9 -4 0 -13 -4
-21 -9 -11 -7 -12 -6 -5 5 5 8 7 22 6 32 -2 9 2 17 7 17 6 0 10 -3 10 -7z
m261 -56 c0 -2 -18 -21 -40 -42 -22 -21 -40 -35 -40 -31 0 5 17 24 37 42 35
32 43 38 43 31z m-208 -119 c31 -45 14 -32 -28 20 -21 26 -28 38 -15 27 13
-11 32 -32 43 -47z m278 49 c0 -2 -17 -19 -37 -38 l-38 -34 34 38 c33 34 41
42 41 34z m-229 -94 c13 -16 12 -17 -3 -4 -10 7 -18 15 -18 17 0 8 8 3 21 -13z
m149 13 c0 -2 -8 -10 -17 -17 -16 -13 -17 -12 -4 4 13 16 21 21 21 13z m-23
-133 c-2 -16 -4 -5 -4 22 0 28 2 40 4 28 2 -13 2 -35 0 -50z m-110 -80 c-2
-27 -3 -5 -3 47 0 52 1 74 3 48 2 -27 2 -69 0 -95z m110 -15 c-2 -13 -4 -5 -4
17 -1 22 1 32 4 23 2 -10 2 -28 0 -40z m-102 -48 c3 -5 1 -10 -4 -10 -6 0 -11
5 -11 10 0 6 2 10 4 10 3 0 8 -4 11 -10z m62 -6 c-3 -3 -12 -4 -19 -1 -8 3 -5
6 6 6 11 1 17 -2 13 -5z"/>
<path d="M8578 3323 c7 -3 16 -2 19 1 4 3 -2 6 -13 5 -11 0 -14 -3 -6 -6z"/>
<path d="M9335 3350 c-3 -6 62 -79 145 -164 l151 -154 -69 -68 c-75 -75 -122
-115 -83 -71 14 15 20 27 14 27 -17 0 -64 -60 -57 -72 4 -6 3 -8 -3 -5 -5 3
-34 -18 -63 -48 l-54 -55 95 0 94 0 105 105 104 104 99 -104 100 -105 100 0
100 0 -144 146 c-79 80 -146 147 -149 150 -2 3 56 65 130 139 74 74 131 137
128 140 -3 3 -14 -4 -24 -17 -11 -13 -55 -57 -98 -98 -59 -57 -72 -66 -55 -39
13 20 26 35 27 34 7 -6 62 48 68 67 3 11 8 17 10 15 7 -7 53 37 48 45 -8 13
-54 9 -54 -4 0 -8 -3 -9 -8 -3 -9 13 -35 19 -28 6 4 -5 1 -13 -5 -16 -5 -4 -8
-13 -5 -20 4 -10 -3 -12 -28 -8 -30 5 -53 -8 -55 -29 -1 -11 -15 -11 -19 0 -1
5 20 29 47 55 l51 45 78 -5 c54 -4 81 -2 86 6 5 8 -18 11 -80 11 l-87 0 -111
-110 -112 -110 -109 110 -110 110 -82 0 c-45 0 -85 -5 -88 -10z m187 -26 c13
-11 63 -61 112 -111 67 -69 83 -92 67 -90 -12 1 -21 8 -21 17 0 19 -50 70 -68
70 -7 0 -12 6 -12 13 0 20 -44 58 -68 60 -12 1 -24 7 -26 14 -3 7 -11 13 -17
13 -8 0 -8 -4 1 -15 11 -13 10 -14 -5 -9 -13 5 -16 4 -11 -4 5 -8 2 -10 -8 -6
-9 3 -16 3 -16 -1 0 -12 43 -68 99 -130 30 -33 -2 -4 -72 65 -70 69 -127 128
-127 131 0 4 33 6 74 4 56 -2 80 -7 98 -21z m478 -30 c0 -2 -7 -4 -15 -4 -8 0
-15 4 -15 10 0 5 7 7 15 4 8 -4 15 -8 15 -10z m-90 -28 c0 -3 -4 -8 -10 -11
-5 -3 -10 -1 -10 4 0 6 5 11 10 11 6 0 10 -2 10 -4z m-62 -42 c-2 -8 -6 -14
-10 -12 -10 5 -78 -64 -78 -79 0 -13 -12 -17 -22 -8 -6 6 93 114 105 114 5 1
7 -6 5 -15z m22 -109 c0 -2 -6 -8 -13 -14 -10 -8 -14 -7 -14 2 0 8 6 14 14 14
7 0 13 -1 13 -2z m-40 -39 c0 -2 -8 -10 -17 -17 -16 -13 -17 -12 -4 4 13 16
21 21 21 13z m45 -114 c-6 -7 -35 18 -35 31 0 5 9 2 20 -8 11 -10 18 -20 15
-23z m-245 -77 c-41 -41 -77 -75 -79 -75 -3 0 28 34 69 75 41 41 77 75 79 75
3 0 -28 -34 -69 -75z m330 0 c0 -2 -9 -3 -20 -2 -10 1 -17 3 -14 6 2 2 -8 18
-23 35 l-28 30 43 -33 c23 -18 42 -34 42 -36z m-124 -35 l86 -89 81 -4 82 -3
-80 -2 -80 -2 -95 95 c-52 52 -91 95 -87 95 4 0 46 -40 93 -90z m190 -32 l19
-21 -27 18 c-29 18 -34 25 -20 25 5 0 17 -10 28 -22z m-521 -58 c-3 -5 -39 -9
-78 -8 l-72 2 75 6 c41 4 76 7 78 8 2 1 0 -2 -3 -8z"/>
<path d="M9370 3324 c0 0 16 -16 36 -34 20 -18 34 -27 32 -19 -3 8 -1 24 3 37
8 21 6 22 -31 20 -22 -2 -40 -3 -40 -4z m60 -8 c0 -3 -4 -8 -10 -11 -5 -3 -10
-1 -10 4 0 6 5 11 10 11 6 0 10 -2 10 -4z"/>
<path d="M9457 3309 c-5 -19 -4 -19 11 -6 9 8 24 17 32 20 9 3 4 6 -11 6 -19
1 -28 -5 -32 -20z"/>
<path d="M6240 3340 c-11 -8 -7 -9 15 -4 37 8 45 14 19 14 -10 0 -26 -5 -34
-10z"/>
<path d="M6760 3319 c43 -26 76 -61 85 -89 4 -12 9 -19 12 -17 18 18 -86 127
-121 127 -6 0 5 -10 24 -21z"/>
<path d="M5947 3173 c-46 -87 -108 -202 -136 -255 -29 -54 -54 -98 -57 -98 -2
0 -2 11 0 24 3 19 0 24 -14 23 -10 -1 -17 -4 -14 -8 2 -4 -3 -12 -11 -19 -13
-11 -14 -10 -9 4 4 10 1 16 -7 16 -11 0 -11 2 1 10 12 7 11 9 -6 8 -21 -2 -24
-17 -9 -51 4 -9 4 -28 1 -42 -5 -19 -2 -25 9 -25 11 0 15 6 11 18 -4 12 3 29
17 46 l24 27 -2 -34 c-1 -57 -18 -68 -97 -65 l-69 3 -66 125 c-174 332 -232
440 -240 440 -2 0 16 -37 40 -82 67 -123 172 -322 220 -415 l41 -83 77 0 77 0
115 218 c63 119 134 252 157 295 23 42 40 77 37 77 -3 0 -43 -71 -90 -157z"/>
<path d="M6185 3310 c-16 -11 -25 -20 -20 -20 10 0 64 39 55 40 -3 0 -18 -9
-35 -20z"/>
<path d="M6130 3248 c-11 -18 -20 -40 -20 -48 1 -8 7 0 16 19 8 19 19 41 26
48 6 7 8 13 4 13 -3 0 -15 -15 -26 -32z"/>
<path d="M5466 3237 c3 -10 9 -15 12 -12 3 3 0 11 -7 18 -10 9 -11 8 -5 -6z"/>
<path d="M5826 3223 c-6 -14 -5 -15 5 -6 7 7 10 15 7 18 -3 3 -9 -2 -12 -12z"/>
<path d="M6313 3232 c-6 -4 71 -7 172 -7 202 0 211 -3 241 -70 16 -36 18 -20
3 23 -17 51 -63 62 -247 62 -86 0 -162 -4 -169 -8z"/>
<path d="M6260 3195 c-13 -14 -22 -27 -19 -29 2 -2 14 10 27 25 29 36 24 38
-8 4z"/>
<path d="M5486 3197 c3 -10 9 -15 12 -12 3 3 0 11 -7 18 -10 9 -11 8 -5 -6z"/>
<path d="M5756 3091 c-30 -59 -64 -125 -76 -146 -11 -20 -19 -39 -16 -42 2 -2
38 63 80 146 42 83 74 151 71 151 -2 0 -29 -49 -59 -109z"/>
<path d="M6865 3053 c0 -144 -1 -149 -28 -195 -15 -26 -33 -50 -40 -55 -6 -4
-3 6 7 22 39 59 48 88 50 153 1 55 -2 66 -14 64 -12 -3 -13 -1 -2 9 17 18 15
34 -3 19 -8 -7 -15 -8 -15 -3 0 5 -7 18 -16 29 -8 10 -13 13 -9 7 3 -7 1 -13
-6 -13 -8 0 -8 -4 -2 -12 15 -19 24 -50 14 -43 -6 3 -14 -2 -18 -10 -6 -10 -9
3 -8 39 1 30 -2 53 -6 51 -3 -3 -7 -36 -7 -74 -1 -69 -18 -129 -46 -156 -28
-28 -71 -36 -191 -37 -210 0 -227 6 -32 11 l189 6 29 33 c16 18 29 40 28 50 0
14 -2 13 -9 -4 -4 -11 -22 -33 -40 -47 -32 -27 -32 -27 -206 -27 l-174 0 -32
29 c-33 29 -33 31 -39 138 l-5 108 -2 -98 c-2 -78 2 -105 15 -128 10 -16 21
-29 26 -29 4 0 6 -4 2 -10 -9 -15 -35 0 -35 20 0 11 -4 22 -10 25 -5 3 -10 28
-10 56 0 27 -4 49 -9 49 -5 0 -8 -8 -7 -17 0 -12 -7 -19 -21 -21 -13 -2 -23
-8 -23 -13 0 -6 -4 -8 -8 -5 -4 2 -8 -4 -8 -15 0 -10 5 -19 10 -19 5 0 2 -6
-8 -13 -18 -13 -18 -14 -1 -20 12 -5 15 -14 11 -31 -5 -19 2 -31 33 -59 57
-51 109 -60 336 -55 157 3 196 6 223 21 17 10 32 15 32 13 0 -3 -15 -13 -32
-23 -28 -15 -66 -18 -242 -21 -230 -4 -270 3 -326 58 -55 54 -64 84 -70 235
l-6 140 -2 -125 c-1 -69 3 -143 9 -165 14 -51 93 -130 146 -144 50 -14 402
-14 457 0 55 14 110 59 138 112 18 34 23 63 26 152 2 61 0 127 -5 148 -5 26
-8 -9 -8 -110z"/>
<path d="M5567 3035 c37 -74 69 -133 71 -131 4 5 -126 266 -133 266 -3 0 25
-61 62 -135z"/>
<path d="M6743 3045 c0 -44 2 -61 4 -37 2 23 2 59 0 80 -2 20 -4 1 -4 -43z"/>
<path d="M6127 3029 c4 -14 9 -15 33 -6 34 13 31 20 -8 21 -22 1 -28 -3 -25
-15z"/>
<path d="M9560 2992 c-25 -25 -49 -52 -54 -61 -5 -9 19 11 53 44 33 33 61 61
61 62 0 10 -21 -6 -60 -45z"/>
<path d="M6140 3005 c-24 -14 -24 -14 -4 -15 12 0 24 7 28 15 6 18 7 18 -24 0z"/>
<path d="M6121 2964 c0 -11 3 -14 6 -6 3 7 2 16 -1 19 -3 4 -6 -2 -5 -13z"/>
<path d="M5620 2838 c-4 -29 -5 -32 -13 -45 -9 -15 -1 -33 15 -33 5 0 7 8 4
17 -4 9 -3 19 2 22 5 3 5 17 1 31 -5 18 -8 20 -9 8z"/>
<path d="M5640 2834 c0 -8 5 -12 10 -9 6 4 8 11 5 16 -9 14 -15 11 -15 -7z"/>
<path d="M5669 2820 c-1 -5 -2 -16 -3 -22 -1 -7 -8 -12 -16 -10 -12 3 -13 1
-2 -10 11 -11 14 -10 22 2 10 16 13 50 5 50 -3 0 -6 -4 -6 -10z"/>
<path d="M5727 2813 c-4 -3 -7 -11 -7 -17 0 -6 5 -5 12 2 6 6 9 14 7 17 -3 3
-9 2 -12 -2z"/>
</g>
</svg>
